<?xml version="1.0" standalone="no"?>
<!DOCTYPE svg PUBLIC "-//W3C//DTD SVG 20010904//EN"
 "http://www.w3.org/TR/2001/REC-SVG-20010904/DTD/svg10.dtd">
<svg version="1.0" xmlns="http://www.w3.org/2000/svg"
 width="200.000000pt" height="200.000000pt" viewBox="0 0 200.000000 200.000000"
 preserveAspectRatio="xMidYMid meet">
<metadata>
Created by potrace 1.15, written by Peter Selinger 2001-2017
</metadata>
<g transform="translate(0.000000,200.000000) scale(0.100000,-0.100000)"
fill="#000000" stroke="none">
<path d="M1210 1636 c-74 -16 -130 -47 -170 -92 -42 -48 -60 -90 -105 -243
-20 -68 -45 -142 -57 -165 -57 -114 -158 -206 -226 -206 -25 0 -43 9 -67 33
-41 41 -60 104 -75 246 -6 57 -18 121 -27 142 -16 42 -45 58 -69 38 -11 -9
-18 -8 -32 5 -43 38 -85 8 -98 -71 -5 -32 -10 -40 -22 -36 -19 8 -42 -23 -42
-54 0 -20 -4 -22 -25 -17 -16 4 -34 0 -50 -10 -35 -23 -35 -83 1 -125 37 -44
146 -114 271 -173 59 -28 137 -72 173 -98 148 -106 284 -174 413 -207 l67 -17
0 -53 c0 -45 -4 -55 -25 -69 -29 -19 -24 -39 7 -23 17 9 25 6 49 -17 27 -26
57 -28 31 -2 -19 19 -14 25 18 20 40 -6 38 4 -5 22 -34 14 -35 17 -35 67 0 48
1 51 23 45 12 -3 55 -6 95 -6 l72 0 0 -52 c0 -47 -4 -56 -37 -90 -40 -41 -26
-55 18 -19 23 19 24 19 53 -2 l29 -21 -5 21 c-5 19 -3 20 31 12 83 -19 78 -3
-7 27 l-53 18 3 51 3 50 50 6 c279 35 425 217 442 551 l6 117 28 12 c36 14 36
24 3 45 l-25 17 28 23 c24 20 26 25 13 34 -8 5 -31 10 -51 10 -31 0 -37 4 -56
43 -51 105 -160 185 -290 212 -82 18 -198 18 -273 1z m261 -30 c177 -38 288
-157 320 -340 22 -128 -7 -330 -62 -439 -30 -57 -110 -139 -167 -170 -75 -41
-153 -57 -278 -57 -238 0 -413 58 -642 213 -59 40 -155 96 -214 124 -119 57
-184 98 -240 151 -63 59 -45 122 24 86 37 -19 43 -14 39 36 -3 40 14 56 25 25
4 -8 12 -15 20 -15 10 0 14 13 14 43 0 57 18 117 35 117 8 0 26 -16 41 -35 33
-43 42 -44 46 -2 l4 32 16 -36 c9 -19 22 -84 28 -144 14 -126 29 -183 61 -230
66 -95 170 -84 277 29 65 68 104 148 146 294 53 186 75 228 144 276 73 50 234
69 363 42z"/>
<path d="M1507 1448 c-56 -43 -26 -137 43 -137 70 0 103 95 47 134 -26 18 -67
19 -90 3z"/>
<path d="M1308 1240 c-9 -6 -49 -53 -88 -105 -86 -115 -139 -161 -191 -170
-79 -13 -84 -61 -11 -93 l37 -15 -37 -11 c-20 -6 -42 -16 -47 -21 -16 -16 3
-36 40 -44 27 -5 34 -12 34 -31 0 -30 47 -49 146 -57 132 -11 240 48 290 160
20 43 24 69 24 152 0 92 -2 104 -30 154 -43 78 -113 112 -167 81z m92 -30 c11
-6 32 -31 47 -57 38 -66 45 -192 13 -275 -26 -70 -89 -129 -155 -148 -49 -14
-181 -9 -210 7 -14 8 -12 11 10 21 35 16 24 29 -30 38 -46 6 -72 24 -37 24 26
0 67 34 58 48 -4 6 -25 17 -47 23 -41 13 -74 39 -48 39 71 0 136 49 226 168
31 42 66 87 77 100 21 24 64 29 96 12z"/>
</g>
</svg>
