<?xml version="1.0" standalone="no"?><!DOCTYPE svg PUBLIC "-//W3C//DTD SVG 1.1//EN" "http://www.w3.org/Graphics/SVG/1.1/DTD/svg11.dtd"><svg t="1566564995819" class="icon" viewBox="0 0 1024 1024" version="1.1" xmlns="http://www.w3.org/2000/svg" p-id="6072" xmlns:xlink="http://www.w3.org/1999/xlink" width="200" height="200"><defs><style type="text/css"></style></defs><path d="M512 512m-512 0a512 512 0 1 0 1024 0 512 512 0 1 0-1024 0Z" fill="#EDC1B2" p-id="6073"></path><path d="M690.328 313.832l-14.536 16.48-309.184 349.504-45.576 26.048 307.608 304.624c188.44-43.92 336.832-191.832 381.432-380.016l-319.744-316.64z" fill="#D8A292" p-id="6074"></path><path d="M572.624 427.752m-163.464 0a163.464 163.464 0 1 0 326.928 0 163.464 163.464 0 1 0-326.928 0Z" fill="#CF7C3F" p-id="6075"></path><path d="M733.016 443.504s4.408 278.528-242.12 313.84c-198.584 28.44-271.552-208.296-271.552-208.296s13.16-31.64 36.896-18.456c23.728 13.168 134.88 42.096 152.912-102.84 18.024-144.928 323.864 15.752 323.864 15.752z" fill="#CF7C3F" p-id="6076"></path><path d="M733.152 406.664l71.52 68.552-71.656 18.112" fill="#4B2F18" p-id="6077"></path><path d="M581.872 404.136m-25.048 0a25.048 25.048 0 1 0 50.096 0 25.048 25.048 0 1 0-50.096 0Z" fill="#4B2F18" p-id="6078"></path><path d="M402.544 592.312c50.576-5.864 51.352-86 101.736-100.672 48.336-14.088 87.688 20.368 87.248 69.176-0.896 97.392-134.688 107.032-198.368 65.8-14.056-9.096-29.896-18.032-39.368-32.344 14.432 2.512 28.888 2.544 44.256 2.544" fill="#F7FAEE" p-id="6079"></path></svg>